<?xml version="1.0" encoding="UTF-8" standalone="no"?>
<!DOCTYPE svg PUBLIC "-//W3C//DTD SVG 1.1//EN"
 "http://www.w3.org/Graphics/SVG/1.1/DTD/svg11.dtd">
<!-- Generated by graphviz version 5.0.0 (20220707.1540)
 -->
<!-- Title: dependencies Pages: 1 -->
<svg width="964pt" height="247pt"
 viewBox="0.00 0.00 964.00 246.80" xmlns="http://www.w3.org/2000/svg" xmlns:xlink="http://www.w3.org/1999/xlink">
<g id="graph0" class="graph" transform="scale(1 1) rotate(0) translate(4 242.8)">
<title>dependencies</title>
<polygon fill="white" stroke="transparent" points="-4,4 -4,-242.8 960,-242.8 960,4 -4,4"/>
<text text-anchor="middle" x="478" y="-8.2" font-family="sans-serif" font-size="14.00">dependencies</text>
<g id="clust1" class="cluster">
<title>cluster_AppModule</title>
<polygon fill="none" stroke="black" stroke-dasharray="1,5" points="8,-32.8 8,-230.8 948,-230.8 948,-32.8 8,-32.8"/>
</g>
<g id="clust10" class="cluster">
<title>cluster_AppModule_bootstrap</title>
<polygon fill="none" stroke="black" points="463,-170.8 463,-222.8 587,-222.8 587,-170.8 463,-170.8"/>
</g>
<g id="clust8" class="cluster">
<title>cluster_AppModule_imports</title>
<polygon fill="none" stroke="black" points="796,-40.8 796,-92.8 940,-92.8 940,-40.8 796,-40.8"/>
</g>
<g id="clust2" class="cluster">
<title>cluster_AppModule_declarations</title>
<polygon fill="none" stroke="black" points="16,-40.8 16,-92.8 788,-92.8 788,-40.8 16,-40.8"/>
</g>
<!-- AppComponent -->
<g id="node1" class="node">
<title>AppComponent</title>
<polygon fill="#ffffb3" stroke="black" points="779.94,-84.8 674.06,-84.8 674.06,-48.8 779.94,-48.8 779.94,-84.8"/>
<text text-anchor="middle" x="727" y="-62.6" font-family="Times,serif" font-size="14.00">AppComponent</text>
</g>
<!-- AppModule -->
<g id="node6" class="node">
<title>AppModule</title>
<polygon fill="#8dd3c7" stroke="black" points="566.66,-149.8 563.66,-153.8 542.66,-153.8 539.66,-149.8 483.34,-149.8 483.34,-113.8 566.66,-113.8 566.66,-149.8"/>
<text text-anchor="middle" x="525" y="-127.6" font-family="Times,serif" font-size="14.00">AppModule</text>
</g>
<!-- AppComponent&#45;&gt;AppModule -->
<g id="edge1" class="edge">
<title>AppComponent&#45;&gt;AppModule</title>
<path fill="none" stroke="black" d="M727,-84.82C727,-102.17 727,-125.8 727,-125.8 727,-125.8 576.85,-125.8 576.85,-125.8"/>
<polygon fill="black" stroke="black" points="576.85,-122.3 566.85,-125.8 576.85,-129.3 576.85,-122.3"/>
</g>
<!-- LoginComponent -->
<g id="node2" class="node">
<title>LoginComponent</title>
<polygon fill="#ffffb3" stroke="black" points="656.27,-84.8 541.73,-84.8 541.73,-48.8 656.27,-48.8 656.27,-84.8"/>
<text text-anchor="middle" x="599" y="-62.6" font-family="Times,serif" font-size="14.00">LoginComponent</text>
</g>
<!-- LoginComponent&#45;&gt;AppModule -->
<g id="edge2" class="edge">
<title>LoginComponent&#45;&gt;AppModule</title>
<path fill="none" stroke="black" d="M554.22,-84.91C554.22,-84.91 554.22,-103.79 554.22,-103.79"/>
<polygon fill="black" stroke="black" points="550.72,-103.79 554.22,-113.79 557.72,-103.79 550.72,-103.79"/>
</g>
<!-- MainMenuComponent -->
<g id="node3" class="node">
<title>MainMenuComponent</title>
<polygon fill="#ffffb3" stroke="black" points="523.55,-84.8 380.45,-84.8 380.45,-48.8 523.55,-48.8 523.55,-84.8"/>
<text text-anchor="middle" x="452" y="-62.6" font-family="Times,serif" font-size="14.00">MainMenuComponent</text>
</g>
<!-- MainMenuComponent&#45;&gt;AppModule -->
<g id="edge3" class="edge">
<title>MainMenuComponent&#45;&gt;AppModule</title>
<path fill="none" stroke="black" d="M503.47,-84.91C503.47,-84.91 503.47,-103.79 503.47,-103.79"/>
<polygon fill="black" stroke="black" points="499.97,-103.79 503.47,-113.79 506.97,-103.79 499.97,-103.79"/>
</g>
<!-- NavmenuComponent -->
<g id="node4" class="node">
<title>NavmenuComponent</title>
<polygon fill="#ffffb3" stroke="black" points="361.76,-84.8 226.24,-84.8 226.24,-48.8 361.76,-48.8 361.76,-84.8"/>
<text text-anchor="middle" x="294" y="-62.6" font-family="Times,serif" font-size="14.00">NavmenuComponent</text>
</g>
<!-- NavmenuComponent&#45;&gt;AppModule -->
<g id="edge4" class="edge">
<title>NavmenuComponent&#45;&gt;AppModule</title>
<path fill="none" stroke="black" d="M294,-84.82C294,-102.17 294,-125.8 294,-125.8 294,-125.8 473.17,-125.8 473.17,-125.8"/>
<polygon fill="black" stroke="black" points="473.17,-129.3 483.17,-125.8 473.17,-122.3 473.17,-129.3"/>
</g>
<!-- PaginationButtonsComponent -->
<g id="node5" class="node">
<title>PaginationButtonsComponent</title>
<polygon fill="#ffffb3" stroke="black" points="208.28,-84.8 23.72,-84.8 23.72,-48.8 208.28,-48.8 208.28,-84.8"/>
<text text-anchor="middle" x="116" y="-62.6" font-family="Times,serif" font-size="14.00">PaginationButtonsComponent</text>
</g>
<!-- PaginationButtonsComponent&#45;&gt;AppModule -->
<g id="edge5" class="edge">
<title>PaginationButtonsComponent&#45;&gt;AppModule</title>
<path fill="none" stroke="black" d="M116,-85.08C116,-106.12 116,-137.8 116,-137.8 116,-137.8 473.15,-137.8 473.15,-137.8"/>
<polygon fill="black" stroke="black" points="473.15,-141.3 483.15,-137.8 473.15,-134.3 473.15,-141.3"/>
</g>
<!-- AppComponent  -->
<g id="node8" class="node">
<title>AppComponent </title>
<polygon fill="#80b1d3" stroke="black" points="579.44,-214.8 470.56,-214.8 470.56,-178.8 579.44,-178.8 579.44,-214.8"/>
<text text-anchor="middle" x="525" y="-192.6" font-family="Times,serif" font-size="14.00">AppComponent </text>
</g>
<!-- AppModule&#45;&gt;AppComponent  -->
<g id="edge7" class="edge">
<title>AppModule&#45;&gt;AppComponent </title>
<path fill="none" stroke="black" stroke-dasharray="1,5" d="M525,-149.91C525,-149.91 525,-168.79 525,-168.79"/>
<polygon fill="black" stroke="black" points="521.5,-168.79 525,-178.79 528.5,-168.79 521.5,-168.79"/>
</g>
<!-- AppRoutingModule -->
<g id="node7" class="node">
<title>AppRoutingModule</title>
<polygon fill="#8dd3c7" stroke="black" points="932.28,-84.8 929.28,-88.8 908.28,-88.8 905.28,-84.8 803.72,-84.8 803.72,-48.8 932.28,-48.8 932.28,-84.8"/>
<text text-anchor="middle" x="868" y="-62.6" font-family="Times,serif" font-size="14.00">AppRoutingModule</text>
</g>
<!-- AppRoutingModule&#45;&gt;AppModule -->
<g id="edge6" class="edge">
<title>AppRoutingModule&#45;&gt;AppModule</title>
<path fill="none" stroke="black" d="M868,-85.08C868,-106.12 868,-137.8 868,-137.8 868,-137.8 576.72,-137.8 576.72,-137.8"/>
<polygon fill="black" stroke="black" points="576.72,-134.3 566.72,-137.8 576.72,-141.3 576.72,-134.3"/>
</g>
</g>
</svg>
