<?xml version="1.0" encoding="UTF-8" standalone="no"?>
<!DOCTYPE svg PUBLIC "-//W3C//DTD SVG 1.1//EN"
 "http://www.w3.org/Graphics/SVG/1.1/DTD/svg11.dtd">
<!-- Generated by graphviz version 5.0.0 (20220707.1540)
 -->
<!-- Title: dependencies Pages: 1 -->
<svg width="964pt" height="247pt"
 viewBox="0.00 0.00 964.00 246.80" xmlns="http://www.w3.org/2000/svg" xmlns:xlink="http://www.w3.org/1999/xlink">
<g id="graph0" class="graph" transform="scale(1 1) rotate(0) translate(4 242.8)">
<title>dependencies</title>
<polygon fill="white" stroke="transparent" points="-4,4 -4,-242.8 960,-242.8 960,4 -4,4"/>
<text text-anchor="middle" x="478" y="-8.2" font-family="sans-serif" font-size="14.00">dependencies</text>
<g id="clust1" class="cluster">
<title>cluster_AppModule</title>
<polygon fill="none" stroke="black" stroke-dasharray="1,5" points="8,-32.8 8,-230.8 948,-230.8 948,-32.8 8,-32.8"/>
</g>
<g id="clust2" class="cluster">
<title>cluster_AppModule_declarations</title>
<polygon fill="none" stroke="black" points="168,-40.8 168,-92.8 940,-92.8 940,-40.8 168,-40.8"/>
</g>
<g id="clust8" class="cluster">
<title>cluster_AppModule_imports</title>
<polygon fill="none" stroke="black" points="16,-40.8 16,-92.8 160,-92.8 160,-40.8 16,-40.8"/>
</g>
<g id="clust10" class="cluster">
<title>cluster_AppModule_bootstrap</title>
<polygon fill="none" stroke="black" points="463,-170.8 463,-222.8 587,-222.8 587,-170.8 463,-170.8"/>
</g>
<!-- AppComponent -->
<g id="node1" class="node">
<title>AppComponent</title>
<polygon fill="#ffffb3" stroke="black" points="931.94,-84.8 826.06,-84.8 826.06,-48.8 931.94,-48.8 931.94,-84.8"/>
<text text-anchor="middle" x="879" y="-62.6" font-family="Times,serif" font-size="14.00">AppComponent</text>
</g>
<!-- AppModule -->
<g id="node6" class="node">
<title>AppModule</title>
<polygon fill="#8dd3c7" stroke="black" points="566.66,-149.8 563.66,-153.8 542.66,-153.8 539.66,-149.8 483.34,-149.8 483.34,-113.8 566.66,-113.8 566.66,-149.8"/>
<text text-anchor="middle" x="525" y="-127.6" font-family="Times,serif" font-size="14.00">AppModule</text>
</g>
<!-- AppComponent&#45;&gt;AppModule -->
<g id="edge1" class="edge">
<title>AppComponent&#45;&gt;AppModule</title>
<path fill="none" stroke="black" d="M879,-85.08C879,-106.12 879,-137.8 879,-137.8 879,-137.8 577,-137.8 577,-137.8"/>
<polygon fill="black" stroke="black" points="577,-134.3 567,-137.8 577,-141.3 577,-134.3"/>
</g>
<!-- LoginComponent -->
<g id="node2" class="node">
<title>LoginComponent</title>
<polygon fill="#ffffb3" stroke="black" points="808.27,-84.8 693.73,-84.8 693.73,-48.8 808.27,-48.8 808.27,-84.8"/>
<text text-anchor="middle" x="751" y="-62.6" font-family="Times,serif" font-size="14.00">LoginComponent</text>
</g>
<!-- LoginComponent&#45;&gt;AppModule -->
<g id="edge2" class="edge">
<title>LoginComponent&#45;&gt;AppModule</title>
<path fill="none" stroke="black" d="M751,-84.82C751,-102.17 751,-125.8 751,-125.8 751,-125.8 576.72,-125.8 576.72,-125.8"/>
<polygon fill="black" stroke="black" points="576.72,-122.3 566.72,-125.8 576.72,-129.3 576.72,-122.3"/>
</g>
<!-- MainMenuComponent -->
<g id="node3" class="node">
<title>MainMenuComponent</title>
<polygon fill="#ffffb3" stroke="black" points="675.55,-84.8 532.45,-84.8 532.45,-48.8 675.55,-48.8 675.55,-84.8"/>
<text text-anchor="middle" x="604" y="-62.6" font-family="Times,serif" font-size="14.00">MainMenuComponent</text>
</g>
<!-- MainMenuComponent&#45;&gt;AppModule -->
<g id="edge3" class="edge">
<title>MainMenuComponent&#45;&gt;AppModule</title>
<path fill="none" stroke="black" d="M549.53,-84.91C549.53,-84.91 549.53,-103.79 549.53,-103.79"/>
<polygon fill="black" stroke="black" points="546.03,-103.79 549.53,-113.79 553.03,-103.79 546.03,-103.79"/>
</g>
<!-- NavmenuComponent -->
<g id="node4" class="node">
<title>NavmenuComponent</title>
<polygon fill="#ffffb3" stroke="black" points="513.76,-84.8 378.24,-84.8 378.24,-48.8 513.76,-48.8 513.76,-84.8"/>
<text text-anchor="middle" x="446" y="-62.6" font-family="Times,serif" font-size="14.00">NavmenuComponent</text>
</g>
<!-- NavmenuComponent&#45;&gt;AppModule -->
<g id="edge4" class="edge">
<title>NavmenuComponent&#45;&gt;AppModule</title>
<path fill="none" stroke="black" d="M498.52,-84.91C498.52,-84.91 498.52,-103.79 498.52,-103.79"/>
<polygon fill="black" stroke="black" points="495.02,-103.79 498.52,-113.79 502.02,-103.79 495.02,-103.79"/>
</g>
<!-- PaginationButtonsComponent -->
<g id="node5" class="node">
<title>PaginationButtonsComponent</title>
<polygon fill="#ffffb3" stroke="black" points="360.28,-84.8 175.72,-84.8 175.72,-48.8 360.28,-48.8 360.28,-84.8"/>
<text text-anchor="middle" x="268" y="-62.6" font-family="Times,serif" font-size="14.00">PaginationButtonsComponent</text>
</g>
<!-- PaginationButtonsComponent&#45;&gt;AppModule -->
<g id="edge5" class="edge">
<title>PaginationButtonsComponent&#45;&gt;AppModule</title>
<path fill="none" stroke="black" d="M268,-84.82C268,-102.17 268,-125.8 268,-125.8 268,-125.8 473.14,-125.8 473.14,-125.8"/>
<polygon fill="black" stroke="black" points="473.14,-129.3 483.14,-125.8 473.14,-122.3 473.14,-129.3"/>
</g>
<!-- AppComponent  -->
<g id="node8" class="node">
<title>AppComponent </title>
<polygon fill="#80b1d3" stroke="black" points="579.44,-214.8 470.56,-214.8 470.56,-178.8 579.44,-178.8 579.44,-214.8"/>
<text text-anchor="middle" x="525" y="-192.6" font-family="Times,serif" font-size="14.00">AppComponent </text>
</g>
<!-- AppModule&#45;&gt;AppComponent  -->
<g id="edge7" class="edge">
<title>AppModule&#45;&gt;AppComponent </title>
<path fill="none" stroke="black" stroke-dasharray="1,5" d="M525,-149.91C525,-149.91 525,-168.79 525,-168.79"/>
<polygon fill="black" stroke="black" points="521.5,-168.79 525,-178.79 528.5,-168.79 521.5,-168.79"/>
</g>
<!-- AppRoutingModule -->
<g id="node7" class="node">
<title>AppRoutingModule</title>
<polygon fill="#8dd3c7" stroke="black" points="152.28,-84.8 149.28,-88.8 128.28,-88.8 125.28,-84.8 23.72,-84.8 23.72,-48.8 152.28,-48.8 152.28,-84.8"/>
<text text-anchor="middle" x="88" y="-62.6" font-family="Times,serif" font-size="14.00">AppRoutingModule</text>
</g>
<!-- AppRoutingModule&#45;&gt;AppModule -->
<g id="edge6" class="edge">
<title>AppRoutingModule&#45;&gt;AppModule</title>
<path fill="none" stroke="black" d="M88,-85.08C88,-106.12 88,-137.8 88,-137.8 88,-137.8 473.1,-137.8 473.1,-137.8"/>
<polygon fill="black" stroke="black" points="473.1,-141.3 483.1,-137.8 473.1,-134.3 473.1,-141.3"/>
</g>
</g>
</svg>
